<svg width="15" height="16" viewBox="0 0 15 16" fill="none" xmlns="http://www.w3.org/2000/svg">
<g clip-path="url(#clip0_6_206)">
<path d="M7.48959 0.489258C4.45827 0.489258 1.99219 2.94937 1.99219 5.97335C1.99219 7.36249 2.86961 9.3252 4.60018 11.807C5.8651 13.6212 7.10918 15.0251 7.1616 15.084L7.48959 15.4529L7.81769 15.084C7.86999 15.0251 9.11407 13.6212 10.3791 11.807C12.1096 9.3252 12.9871 7.36249 12.9871 5.97335C12.9871 2.94937 10.5209 0.489258 7.48959 0.489258ZM9.66396 11.3003C8.80898 12.5274 7.94483 13.5834 7.48959 14.1221C7.03548 13.5849 6.17455 12.5329 5.32013 11.3074C3.7167 9.00793 2.86915 7.16339 2.86915 5.97335C2.86915 3.43183 4.9419 1.3641 7.48959 1.3641C10.0374 1.3641 12.11 3.43183 12.11 5.97335C12.11 7.16213 11.2642 9.00417 9.66396 11.3003Z" fill="#999999"/>
<path d="M7.48866 2.51611C5.6996 2.51611 4.24414 3.96805 4.24414 5.75277C4.24414 7.53749 5.6996 8.98954 7.48866 8.98954C9.27782 8.98954 10.7333 7.53749 10.7333 5.75277C10.7333 3.96805 9.27782 2.51611 7.48866 2.51611ZM7.48866 8.11471C6.18323 8.11471 5.1211 7.05515 5.1211 5.75277C5.1211 4.45051 6.18323 3.39095 7.48866 3.39095C8.7942 3.39095 9.85632 4.45051 9.85632 5.75277C9.85632 7.05515 8.7942 8.11471 7.48866 8.11471Z" fill="#999999"/>
</g>
<defs>
<clipPath id="clip0_6_206">
<rect width="15" height="14.9637" fill="white" transform="translate(0 0.489258)"/>
</clipPath>
</defs>
</svg>
