<svg width="15" height="12" viewBox="0 0 15 12" fill="none" xmlns="http://www.w3.org/2000/svg">
<path d="M13.1688 0.487793H1.83426C0.822471 0.487793 0 1.30827 0 2.31762V10.0456C0 11.0549 0.822471 11.8754 1.83426 11.8754H13.1657C14.1775 11.8754 15 11.0549 15 10.0456V2.32071C15.0031 1.31137 14.1806 0.487793 13.1688 0.487793ZM14.1651 10.0456C14.1651 10.5936 13.7182 11.0395 13.1688 11.0395H1.83426C1.28492 11.0395 0.837989 10.5936 0.837989 10.0456V2.32071C0.837989 1.77269 1.28492 1.32685 1.83426 1.32685H13.1657C13.7151 1.32685 14.162 1.77269 14.162 2.32071V10.0456H14.1651Z" fill="#999999"/>
<path d="M9.46007 6.08586L13.1286 2.80394C13.2993 2.64914 13.3148 2.38596 13.1596 2.21258C13.0044 2.04229 12.7406 2.02681 12.5668 2.18162L7.50786 6.71128L6.5209 5.83198C6.51779 5.82888 6.51469 5.82578 6.51469 5.82269C6.49297 5.80101 6.47124 5.78244 6.44641 5.76386L2.43027 2.17852C2.25647 2.02371 1.99265 2.03919 1.83747 2.21258C1.68229 2.38596 1.69781 2.64914 1.87161 2.80394L5.58359 6.11372L1.88713 9.56593C1.71953 9.72383 1.71022 9.987 1.86851 10.1573C1.95231 10.244 2.06404 10.2904 2.17577 10.2904C2.27819 10.2904 2.38061 10.2533 2.46131 10.179L6.21364 6.67722L7.23164 7.58439C7.31233 7.65561 7.41165 7.68966 7.51097 7.68966C7.61028 7.68966 7.7127 7.65251 7.7903 7.5813L8.83623 6.64626L12.5668 10.1821C12.6475 10.2595 12.7531 10.2966 12.8555 10.2966C12.9672 10.2966 13.0758 10.2533 13.1596 10.1666C13.3179 9.99939 13.3117 9.73312 13.1441 9.57522L9.46007 6.08586Z" fill="#999999"/>
</svg>
