<svg width="15" height="16" viewBox="0 0 15 16" fill="none" xmlns="http://www.w3.org/2000/svg">
<path d="M14.6064 12.1369L11.5703 10.1171C11.1851 9.86284 10.6686 9.9465 10.3838 10.3093L9.49938 11.4437C9.38573 11.5932 9.17913 11.6365 9.01471 11.5454L8.84648 11.4529C8.28881 11.1497 7.59493 10.7722 6.19688 9.37701C4.79884 7.98185 4.41965 7.28912 4.11568 6.73382L4.02344 6.566C3.93084 6.40201 3.97349 6.19504 4.12341 6.08075L5.25973 5.19878C5.62331 4.9146 5.70729 4.39954 5.45271 4.01508L3.42801 0.986373C3.1671 0.594862 2.64364 0.477333 2.23973 0.719551L0.970159 1.48034C0.571253 1.71428 0.278592 2.09317 0.153542 2.5376C-0.303626 4.19932 0.0402969 7.06718 4.27518 11.2923C7.64393 14.6526 10.1518 15.5563 11.8756 15.5563C12.2723 15.558 12.6674 15.5065 13.0504 15.4032C13.496 15.2786 13.8759 14.9866 14.1102 14.5886L14.8736 13.3229C15.1168 12.9198 14.999 12.3973 14.6064 12.1369ZM14.4429 13.067L13.6813 14.3335C13.513 14.6208 13.2398 14.832 12.9189 14.923C11.3811 15.3441 8.69451 14.9953 4.62885 10.9395C0.563198 6.88367 0.213533 4.20382 0.635726 2.66954C0.727002 2.34903 0.939021 2.07613 1.22738 1.90799L2.49694 1.1482C2.6722 1.043 2.89939 1.094 3.01261 1.26389L4.11246 2.91114L5.03558 4.29233C5.14613 4.4591 5.10981 4.68261 4.9521 4.80602L3.81552 5.68798C3.46963 5.95182 3.37086 6.42922 3.58381 6.8081L3.67406 6.97169C3.99353 7.55618 4.39071 8.2833 5.84074 9.72959C7.29078 11.1759 8.01944 11.5721 8.60508 11.8908L8.76929 11.981C9.14907 12.1934 9.62765 12.0949 9.89214 11.7499L10.7762 10.6161C10.9 10.4588 11.1239 10.4226 11.2912 10.5328L14.327 12.5526C14.4974 12.6654 14.5485 12.8922 14.4429 13.067Z" fill="#999999"/>
<path d="M8.49995 3.08854C10.8457 3.09114 12.7467 4.98753 12.7493 7.32763C12.7493 7.46535 12.8612 7.57698 12.9993 7.57698C13.1373 7.57698 13.2492 7.46535 13.2492 7.32763C13.2463 4.71221 11.1217 2.59271 8.49995 2.58984C8.3619 2.58984 8.25 2.70147 8.25 2.83919C8.25 2.97691 8.3619 3.08854 8.49995 3.08854Z" fill="#999999"/>
<path d="M8.49995 4.58463C10.0178 4.58642 11.2478 5.81343 11.2496 7.32758C11.2496 7.4653 11.3615 7.57693 11.4995 7.57693C11.6376 7.57693 11.7495 7.4653 11.7495 7.32758C11.7474 5.5381 10.2937 4.08798 8.49995 4.08594C8.3619 4.08594 8.25 4.19756 8.25 4.33529C8.25 4.47301 8.3619 4.58463 8.49995 4.58463Z" fill="#999999"/>
<path d="M8.49995 6.08073C9.18985 6.08155 9.74893 6.63927 9.74978 7.32753C9.74978 7.46525 9.8617 7.57687 9.99973 7.57687C10.1378 7.57687 10.2497 7.46525 10.2497 7.32753C10.2486 6.36397 9.46585 5.58311 8.49995 5.58203C8.3619 5.58203 8.25 5.69366 8.25 5.83138C8.25 5.9691 8.3619 6.08073 8.49995 6.08073Z" fill="#999999"/>
</svg>
